<?xml version="1.0" encoding="UTF-8"?>
<mxfile host="app.diagrams.net">
  <diagram id="classDiagram" name="Class Diagram">
    <mxGraphModel dx="1000" dy="1000" grid="1" gridSize="10" guides="1" tooltips="1" connect="1" arrows="1" fold="1" page="1" pageScale="1" pageWidth="850" pageHeight="1100" math="0" shadow="0">
      <root>
        <mxCell id="0" />
        <mxCell id="1" parent="0" />
        <!-- Account (abstract) -->
        <mxCell id="2" value="&lt;b&gt;Account&lt;/b&gt; (abstract)
---------------------
- data: Map
---------------------
+ getId()
+ getName()
+ getType()
+ getBalance()
+ getCreatedAt()
+ getUpdatedAt()
+ asMap()
+ rename(newName)
+ deposit(amount, when)" style="rounded=1;whiteSpace=wrap;html=1;fillColor=#f5f5f5;strokeColor=#333333;fontStyle=2" vertex="1" parent="1">
          <mxGeometry x="40" y="40" width="220" height="260" as="geometry" />
        </mxCell>
        <!-- BankAccount -->
        <mxCell id="3" value="&lt;b&gt;BankAccount&lt;/b&gt;
---------------------
+ BankAccount(name)" style="rounded=1;whiteSpace=wrap;html=1;fillColor=#e1f5fe;strokeColor=#333333;" vertex="1" parent="1">
          <mxGeometry x="300" y="40" width="180" height="60" as="geometry" />
        </mxCell>
        <!-- EWalletAccount -->
        <mxCell id="4" value="&lt;b&gt;EWalletAccount&lt;/b&gt;
---------------------
+ EWalletAccount(name)" style="rounded=1;whiteSpace=wrap;html=1;fillColor=#e1f5fe;strokeColor=#333333;" vertex="1" parent="1">
          <mxGeometry x="300" y="120" width="180" height="60" as="geometry" />
        </mxCell>
        <!-- Contract -->
        <mxCell id="5" value="&lt;b&gt;Contract&lt;/b&gt;
---------------------
- stats: Stats
- name: String
- money: String
- phoneNumber: String
- vayDate: String
- traDate: String
- interest: double
- type: typeInterest
- note: String
---------------------
+ getStats()
+ getName()
+ getMoney()
+ getPhoneNumber()
+ getVayDate()
+ getTraDate()
+ getInterest()
+ getType()
+ getNote()" style="rounded=1;whiteSpace=wrap;html=1;fillColor=#fff3e0;strokeColor=#333333;" vertex="1" parent="1">
          <mxGeometry x="40" y="340" width="220" height="320" as="geometry" />
        </mxCell>
        <!-- Ledger -->
        <mxCell id="6" value="&lt;b&gt;Ledger&lt;/b&gt;
---------------------
- entries: List&lt;Transaction&gt;
---------------------
+ record(txn)
+ query(...)
+ listByAccount(id)
+ find(accountId, txnId)
+ remove(txn)" style="rounded=1;whiteSpace=wrap;html=1;fillColor=#e8f5e9;strokeColor=#333333;" vertex="1" parent="1">
          <mxGeometry x="300" y="340" width="220" height="180" as="geometry" />
        </mxCell>
        <!-- Transaction -->
        <mxCell id="7" value="&lt;b&gt;Transaction&lt;/b&gt;
---------------------
- data: Map
---------------------
+ getId()
+ getAccountId()
+ getType()
+ getAmount()
+ getOccurredAt()
+ getNote()
+ getCategory()
+ getCounterpartyAccountId()
+ updateType(type)
+ updateAmount(amount)
+ asMap()" style="rounded=1;whiteSpace=wrap;html=1;fillColor=#fce4ec;strokeColor=#333333;" vertex="1" parent="1">
          <mxGeometry x="560" y="340" width="220" height="260" as="geometry" />
        </mxCell>
        <!-- Inheritance: Account -> BankAccount -->
        <mxCell id="8" style="endArrow=block;endFill=1;html=1;strokeColor=#333333;" edge="1" parent="1" source="2" target="3">
          <mxGeometry relative="1" as="geometry" />
        </mxCell>
        <!-- Inheritance: Account -> EWalletAccount -->
        <mxCell id="9" style="endArrow=block;endFill=1;html=1;strokeColor=#333333;" edge="1" parent="1" source="2" target="4">
          <mxGeometry relative="1" as="geometry" />
        </mxCell>
        <!-- Association: Ledger -- Transaction -->
        <mxCell id="10" style="endArrow=open;html=1;strokeColor=#333333;" edge="1" parent="1" source="6" target="7">
          <mxGeometry relative="1" as="geometry" />
        </mxCell>
        <!-- Association: Transaction -- Account -->
        <mxCell id="11" style="endArrow=open;html=1;strokeColor=#333333;" edge="1" parent="1" source="7" target="2">
          <mxGeometry relative="1" as="geometry" />
        </mxCell>
      </root>
    </mxGraphModel>
  </diagram>
</mxfile>
